<?xml version="1.0" encoding="UTF-8" standalone="no"?>
<!-- Created with Inkscape (http://www.inkscape.org/) -->

<svg
   width="223.72653mm"
   height="95.167976mm"
   viewBox="0 0 223.72653 95.167977"
   version="1.1"
   id="svg5"
   xmlns="http://www.w3.org/2000/svg"
   xmlns:svg="http://www.w3.org/2000/svg">
  <defs
     id="defs2" />
  <g
     id="layer1"
     style="display:inline"
     transform="translate(-13.888672,-93.289062)">
    <text
       xml:space="preserve"
       style="font-style:normal;font-variant:normal;font-weight:normal;font-stretch:normal;font-size:85.1778px;line-height:1.25;font-family:'Futura Maxi CG Light';-inkscape-font-specification:'Futura Maxi CG Light, Normal';font-variant-ligatures:normal;font-variant-caps:normal;font-variant-numeric:normal;font-variant-east-asian:normal;fill:#345ba9;fill-opacity:1;stroke:none;stroke-width:2.12946"
       x="18.140739"
       y="163.29962"
       id="text1178"><tspan
         id="tspan1176"
         style="font-style:normal;font-variant:normal;font-weight:normal;font-stretch:normal;font-size:85.1778px;font-family:'Futura Maxi CG Light';-inkscape-font-specification:'Futura Maxi CG Light, Normal';font-variant-ligatures:normal;font-variant-caps:normal;font-variant-numeric:normal;font-variant-east-asian:normal;fill:#345ba9;fill-opacity:1;stroke-width:2.12946"
         x="18.140739"
         y="163.29962"
         dx="0 0 0 0 -5.25">t   rna</tspan></text>
    <path
       style="color:#000000;fill:#ff6600;stroke-width:3;-inkscape-stroke:none"
       d="m 41.115641,134.06805 59.722699,-0.17009"
       id="path7899" />
    <path
       id="path7901"
       style="color:#000000;fill:#f58220;fill-opacity:1;stroke:none;stroke-width:1;stroke-opacity:1;-inkscape-stroke:none"
       d="m 70.887663,102.70432 c -0.475895,0.001 -0.95023,0.013 -1.422654,0.0357 -13.227865,0.63436 -24.934925,9.63396 -28.660264,22.77174 -4.257529,15.01461 3.193677,30.90132 17.460949,37.22667 14.26727,6.32534 31.04265,1.18012 39.310262,-12.05663 0.438854,-0.70227 0.225576,-1.62732 -0.476459,-2.06654 -0.70259,-0.43992 -1.628804,-0.22653 -2.068089,0.47645 -7.488039,11.98862 -22.626759,16.63316 -35.548734,10.90425 -9.99872,-4.43289 -16.285522,-14.02047 -16.832564,-24.43159 l 28.091048,-0.0377 c 0.157671,0.055 30.517852,-0.13086 30.517852,-0.13086 0.41711,-0.003 1.08438,-0.67875 1.07893,-1.50728 -0.0889,-15.60631 -11.667233,-28.7911 -27.131163,-30.89631 -1.449742,-0.19736 -2.891433,-0.29139 -4.319114,-0.28784 z m 0.0031,2.99879 c 1.292632,-0.003 2.598864,0.0827 3.911907,0.26148 13.497747,1.83754 23.59638,12.9828 24.390241,26.4387 L 42.651656,132.564 c 0.111781,-2.07309 0.452244,-4.1619 1.03973,-6.23373 3.494572,-12.32396 14.703936,-20.60241 27.199373,-20.62716 z" />
    <path
       id="circle9352"
       style="fill:#f58220;fill-opacity:1;stroke:none;stroke-width:51.5657;stroke-linecap:round;stroke-linejoin:round;stroke-miterlimit:4;stroke-dasharray:none;stroke-opacity:1;paint-order:stroke fill markers"
       d="M 70.394668,107.14643 A 27.004695,27.004695 0 0 0 44.228824,130.0148 h 19.632392 a 7.7967654,9.552329 0 0 1 7.032646,-5.43481 h -0.499194 z m 0.499194,17.43356 a 7.7967654,9.552329 0 0 1 7.027995,5.43481 H 97.558901 A 27.004695,27.004695 0 0 0 71.394607,107.14643 v 17.43356 z" />
    <text
       xml:space="preserve"
       style="font-style:normal;font-variant:normal;font-weight:normal;font-stretch:normal;font-size:11.0342px;line-height:1.25;font-family:Poppins;-inkscape-font-specification:'Poppins, Normal';font-variant-ligatures:normal;font-variant-caps:normal;font-variant-numeric:normal;font-variant-east-asian:normal;fill:#000000;fill-opacity:1;stroke:none;stroke-width:0.275857"
       x="104.47293"
       y="180.72246"
       id="text14099"><tspan
         id="tspan14097"
         style="font-style:normal;font-variant:normal;font-weight:normal;font-stretch:normal;font-size:11.0342px;font-family:Poppins;-inkscape-font-specification:'Poppins, Normal';font-variant-ligatures:normal;font-variant-caps:normal;font-variant-numeric:normal;font-variant-east-asian:normal;stroke-width:0.275857"
         x="104.47293"
         y="180.72246"
         dx="-0.93000001">Knowledge to Empower</tspan></text>
    <path
       style="color:#000000;fill:#ff6600;stroke-width:3;-inkscape-stroke:none"
       d="m 41.115641,134.06805 59.722699,-0.17009"
       id="path18352" />
    <path
       id="path18354"
       style="color:#000000;fill:#f58220;fill-opacity:1;stroke:none;stroke-width:1;stroke-opacity:1;-inkscape-stroke:none"
       d="m 70.887663,102.70432 c -0.475895,0.001 -0.95023,0.013 -1.422654,0.0357 -13.227865,0.63436 -24.934925,9.63396 -28.660264,22.77174 -4.257529,15.01461 3.193677,30.90132 17.460949,37.22667 14.26727,6.32534 31.04265,1.18012 39.310262,-12.05663 0.438854,-0.70227 0.225576,-1.62732 -0.476459,-2.06654 -0.70259,-0.43992 -1.628804,-0.22653 -2.068089,0.47645 -7.488039,11.98862 -22.626759,16.63316 -35.548734,10.90425 -9.99872,-4.43289 -16.285522,-14.02047 -16.832564,-24.43159 l 28.091048,-0.0377 c 0.157671,0.055 30.517852,-0.13086 30.517852,-0.13086 0.41711,-0.003 1.08438,-0.67875 1.07893,-1.50728 -0.0889,-15.60631 -11.667233,-28.7911 -27.131163,-30.89631 -1.449742,-0.19736 -2.891433,-0.29139 -4.319114,-0.28784 z m 0.0031,2.99879 c 1.292632,-0.003 2.598864,0.0827 3.911907,0.26148 13.497747,1.83754 23.59638,12.9828 24.390241,26.4387 L 42.651656,132.564 c 0.111781,-2.07309 0.452244,-4.1619 1.03973,-6.23373 3.494572,-12.32396 14.703936,-20.60241 27.199373,-20.62716 z" />
    <path
       id="path18356"
       style="fill:#f58220;fill-opacity:1;stroke:none;stroke-width:51.5657;stroke-linecap:round;stroke-linejoin:round;stroke-miterlimit:4;stroke-dasharray:none;stroke-opacity:1;paint-order:stroke fill markers"
       d="M 70.394668,107.14643 A 27.004695,27.004695 0 0 0 44.228824,130.0148 h 19.632392 a 7.7967654,9.552329 0 0 1 7.032646,-5.43481 h -0.499194 z m 0.499194,17.43356 a 7.7967654,9.552329 0 0 1 7.027995,5.43481 H 97.558901 A 27.004695,27.004695 0 0 0 71.394607,107.14643 v 17.43356 z" />
    <path
       style="color:#000000;fill:#ff6600;stroke-width:3;-inkscape-stroke:none"
       d="m 41.115641,134.06805 59.722699,-0.17009"
       id="path18442" />
    <path
       id="path18444"
       style="color:#000000;fill:#f58220;fill-opacity:1;stroke:none;stroke-width:1;stroke-opacity:1;-inkscape-stroke:none"
       d="m 70.887663,102.70432 c -0.475895,0.001 -0.95023,0.013 -1.422654,0.0357 -13.227865,0.63436 -24.934925,9.63396 -28.660264,22.77174 -4.257529,15.01461 3.193677,30.90132 17.460949,37.22667 14.26727,6.32534 31.04265,1.18012 39.310262,-12.05663 0.438854,-0.70227 0.225576,-1.62732 -0.476459,-2.06654 -0.70259,-0.43992 -1.628804,-0.22653 -2.068089,0.47645 -7.488039,11.98862 -22.626759,16.63316 -35.548734,10.90425 -9.99872,-4.43289 -16.285522,-14.02047 -16.832564,-24.43159 l 28.091048,-0.0377 c 0.157671,0.055 30.517852,-0.13086 30.517852,-0.13086 0.41711,-0.003 1.08438,-0.67875 1.07893,-1.50728 -0.0889,-15.60631 -11.667233,-28.7911 -27.131163,-30.89631 -1.449742,-0.19736 -2.891433,-0.29139 -4.319114,-0.28784 z m 0.0031,2.99879 c 1.292632,-0.003 2.598864,0.0827 3.911907,0.26148 13.497747,1.83754 23.59638,12.9828 24.390241,26.4387 L 42.651656,132.564 c 0.111781,-2.07309 0.452244,-4.1619 1.03973,-6.23373 3.494572,-12.32396 14.703936,-20.60241 27.199373,-20.62716 z" />
    <path
       id="path18446"
       style="fill:#f58220;fill-opacity:1;stroke:none;stroke-width:51.5657;stroke-linecap:round;stroke-linejoin:round;stroke-miterlimit:4;stroke-dasharray:none;stroke-opacity:1;paint-order:stroke fill markers"
       d="M 70.394668,107.14643 A 27.004695,27.004695 0 0 0 44.228824,130.0148 h 19.632392 a 7.7967654,9.552329 0 0 1 7.032646,-5.43481 h -0.499194 z m 0.499194,17.43356 a 7.7967654,9.552329 0 0 1 7.027995,5.43481 H 97.558901 A 27.004695,27.004695 0 0 0 71.394607,107.14643 v 17.43356 z" />
    <text
       xml:space="preserve"
       style="font-style:normal;font-variant:normal;font-weight:normal;font-stretch:normal;font-size:11.0342px;line-height:1.25;font-family:Poppins;-inkscape-font-specification:'Poppins, Normal';font-variant-ligatures:normal;font-variant-caps:normal;font-variant-numeric:normal;font-variant-east-asian:normal;fill:#ffffff;fill-opacity:1;stroke:none;stroke-width:0.275857"
       x="104.47293"
       y="180.72246"
       id="text18450"><tspan
         id="tspan18448"
         style="font-style:normal;font-variant:normal;font-weight:normal;font-stretch:normal;font-size:11.0342px;font-family:Poppins;-inkscape-font-specification:'Poppins, Normal';font-variant-ligatures:normal;font-variant-caps:normal;font-variant-numeric:normal;font-variant-east-asian:normal;stroke-width:0.275857;fill:#ffffff"
         x="104.47293"
         y="180.72246"
         dx="-0.93000001">Knowledge to Empower</tspan></text>
    <path
       style="color:#000000;fill:#ff6600;stroke-width:3;-inkscape-stroke:none"
       d="m 41.115641,134.06805 59.722699,-0.17009"
       id="path18456" />
    <path
       id="path18460"
       style="fill:#f58220;fill-opacity:1;stroke:none;stroke-width:51.5657;stroke-linecap:round;stroke-linejoin:round;stroke-miterlimit:4;stroke-dasharray:none;stroke-opacity:1;paint-order:stroke fill markers"
       d="M 70.394668,107.14643 A 27.004695,27.004695 0 0 0 44.228824,130.0148 h 19.632392 a 7.7967654,9.552329 0 0 1 7.032646,-5.43481 h -0.499194 z m 0.499194,17.43356 a 7.7967654,9.552329 0 0 1 7.027995,5.43481 H 97.558901 A 27.004695,27.004695 0 0 0 71.394607,107.14643 v 17.43356 z" />
  </g>
</svg>
