<?xml version="1.0" encoding="UTF-8" standalone="no"?>
<!-- Created with Inkscape (http://www.inkscape.org/) -->

<svg
   width="237.00087mm"
   height="237.00087mm"
   viewBox="0 0 237.00087 237.00087"
   version="1.1"
   id="svg1102"
   sodipodi:docname="brand-logo.svg"
   inkscape:version="1.1.1 (3bf5ae0d25, 2021-09-20)"
   xmlns:inkscape="http://www.inkscape.org/namespaces/inkscape"
   xmlns:sodipodi="http://sodipodi.sourceforge.net/DTD/sodipodi-0.dtd"
   xmlns="http://www.w3.org/2000/svg"
   xmlns:svg="http://www.w3.org/2000/svg">
  <sodipodi:namedview
     id="namedview1104"
     pagecolor="#ffffff"
     bordercolor="#cccccc"
     borderopacity="1"
     inkscape:pageshadow="0"
     inkscape:pageopacity="1"
     inkscape:pagecheckerboard="0"
     inkscape:document-units="mm"
     showgrid="false"
     inkscape:zoom="0.64052329"
     inkscape:cx="293.51002"
     inkscape:cy="384.06098"
     inkscape:window-width="1920"
     inkscape:window-height="974"
     inkscape:window-x="-11"
     inkscape:window-y="-11"
     inkscape:window-maximized="1"
     inkscape:current-layer="layer1"
     fit-margin-top="0"
     fit-margin-left="0"
     fit-margin-right="0"
     fit-margin-bottom="0" />
  <defs
     id="defs1099" />
  <g
     inkscape:label="Layer 1"
     inkscape:groupmode="layer"
     id="layer1"
     transform="translate(15.23201,-38.467579)">
    <rect
       style="fill:none;fill-opacity:1;stroke:none;stroke-width:2.58546;stroke-linecap:round;stroke-linejoin:round;stroke-miterlimit:4;stroke-dasharray:none;stroke-opacity:1;stop-color:#000000"
       id="rect983"
       width="237.00087"
       height="237.00087"
       x="-221.76886"
       y="38.467579"
       ry="1.5101552"
       inkscape:export-filename="E:\Logos\Memegineering.png"
       inkscape:export-xdpi="96"
       inkscape:export-ydpi="96"
       transform="scale(-1,1)" />
    <path
       id="path153"
       style="font-variation-settings:normal;vector-effect:none;fill:#bd731e;fill-opacity:1;stroke:none;stroke-width:0.51095;stroke-linecap:butt;stroke-linejoin:miter;stroke-miterlimit:4;stroke-dasharray:none;stroke-dashoffset:0;stroke-opacity:1;stop-color:#000000"
       d="m 125.57454,139.39348 -0.69178,0.69189 4.7184,6.06752 h 17.60354 17.60355 l 4.71841,-6.06752 -0.69178,-0.69189 H 147.2047 Z m -20.27827,5.40765 -6.759443,6.75936 v 31.09332 l 4.055633,2.43443 v -33.29538 l 4.05569,-4.05569 v -2.93604 z m 82.465,0 v 2.93604 l 4.05566,4.05569 v 33.29538 l 4.05565,-2.43443 v -31.09332 l -6.75942,-6.75936 z" />
    <path
       style="font-variation-settings:normal;vector-effect:none;fill:#0088aa;fill-opacity:1;stroke:none;stroke-width:0.51095;stroke-linecap:butt;stroke-linejoin:miter;stroke-miterlimit:4;stroke-dasharray:none;stroke-dashoffset:0;stroke-opacity:1;stop-color:#000000"
       d="m 91.777387,148.85667 c -1.49322,0 -2.70376,1.2105 -2.70376,2.70382 v 33.7971 c 0,1.49327 1.21054,2.70377 2.70376,2.70377 h 1.35188 c 1.49327,0 2.7038,-1.2105 2.7038,-2.70377 v -33.7971 c 0,-1.49332 -1.21053,-2.70382 -2.7038,-2.70382 z"
       id="path159" />
    <path
       style="font-variation-settings:normal;vector-effect:none;fill:#0088aa;fill-opacity:1;stroke:none;stroke-width:0.51095;stroke-linecap:butt;stroke-linejoin:miter;stroke-miterlimit:4;stroke-dasharray:none;stroke-dashoffset:0;stroke-opacity:1;stop-color:#000000"
       d="m 115.26906,129.9302 3.50643,4.50736 c 0.0248,-0.14801 0.0396,-0.30064 0.0396,-0.45173 v -1.35206 c 0,-1.49317 -1.21053,-2.70373 -2.70376,-2.70373 z"
       id="path161" />
    <path
       style="font-variation-settings:normal;vector-effect:none;fill:#004455;fill-opacity:1;stroke:none;stroke-width:0.51095;stroke-linecap:butt;stroke-linejoin:miter;stroke-miterlimit:4;stroke-dasharray:none;stroke-dashoffset:0;stroke-opacity:1;stop-color:#000000"
       d="m 68.795367,120.46717 c -1.49328,0 -2.70381,1.2105 -2.70381,2.70367 v 4.05569 2.70367 6.75951 6.75951 c 0,1.49322 1.21053,2.70367 2.70381,2.70367 h 4.05563 18.92639 c 1.49327,0 2.70376,-1.21045 2.70376,-2.70367 v -1.35191 c 0,-1.49327 -1.21049,-2.70383 -2.70376,-2.70383 h -17.57451 c -0.74659,0 -1.35188,-0.60522 -1.35188,-1.35191 0,-0.74658 0.60529,-1.35186 1.35188,-1.35186 h 17.57451 c 1.49327,0 2.70376,-1.21056 2.70376,-2.70372 v -1.35202 c 0,-1.49322 -1.21049,-2.70377 -2.70376,-2.70377 h -17.57451 c -0.74659,0 -1.35188,-0.60513 -1.35188,-1.35181 0,-0.74659 0.60529,-1.35186 1.35188,-1.35186 h 17.57451 c 1.49327,0 2.70376,-1.21056 2.70376,-2.70373 v -1.35196 c 0,-1.49317 -1.21049,-2.70367 -2.70376,-2.70367 h -18.92639 z"
       id="path165" />
    <path
       style="font-variation-settings:normal;vector-effect:none;fill:#0088aa;fill-opacity:1;stroke:none;stroke-width:0.545497;stroke-linecap:butt;stroke-linejoin:miter;stroke-miterlimit:4;stroke-dasharray:none;stroke-dashoffset:0;stroke-opacity:1;stop-color:#000000"
       d="m 171.20602,111.0425 c -1.49325,0 -2.70378,1.37985 -2.70378,3.08171 v 15.40863 c 0,1.70214 1.21053,3.08182 2.70378,3.08182 1.49326,0 2.70377,-1.37968 2.70377,-3.08182 v -15.40863 c 0,-1.70186 -1.21051,-3.08171 -2.70377,-3.08171 z"
       id="path167" />
    <path
       style="font-variation-settings:normal;vector-effect:none;fill:#004455;fill-opacity:1;stroke:none;stroke-width:0.51095;stroke-linecap:butt;stroke-linejoin:miter;stroke-miterlimit:4;stroke-dasharray:none;stroke-dashoffset:0;stroke-opacity:1;stop-color:#000000"
       d="m 124.22266,111.00388 c -1.49327,0 -2.7038,1.21056 -2.7038,2.70383 v 1.35196 c 0,1.49327 1.21053,2.70373 2.7038,2.70373 h 9.46319 c 0.74662,0 1.35188,0.60517 1.35188,1.35181 0,0.74673 -0.60525,1.35196 -1.35188,1.35196 h -9.46319 c -1.49327,0 -2.7038,1.2105 -2.7038,2.70367 v 4.05569 2.70367 4.05579 c 0,1.49316 1.21053,2.70372 2.7038,2.70372 h 14.87074 c 1.49324,0 2.70376,-1.21056 2.70376,-2.70372 v -1.35202 c 0,-1.49322 -1.21052,-2.70377 -2.70376,-2.70377 h -9.46323 c -0.74658,0 -1.35187,-0.60513 -1.35187,-1.35181 0,-0.74659 0.60529,-1.35186 1.35187,-1.35186 h 9.46323 c 1.49324,0 2.70376,-1.21056 2.70376,-2.70373 v -4.05563 -2.70377 -4.05569 c 0,-1.49327 -1.21052,-2.70383 -2.70376,-2.70383 z"
       id="path175" />
    <path
       style="font-variation-settings:normal;vector-effect:none;fill:#004455;fill-opacity:1;stroke:none;stroke-width:0.51095;stroke-linecap:butt;stroke-linejoin:miter;stroke-miterlimit:4;stroke-dasharray:none;stroke-dashoffset:0;stroke-opacity:1;stop-color:#000000"
       d="m 99.888707,111.00388 c -1.49323,0 -2.70376,1.21056 -2.70376,2.70383 v 4.05569 16.22259 c 0,1.49316 1.21053,2.70372 2.70376,2.70372 h 8.111323 v -6.75951 h -1.35188 c -1.49328,0 -2.70376,-1.21045 -2.70376,-2.70367 v -6.75936 c 0,-1.49327 1.21048,-2.70377 2.70376,-2.70377 h 9.46319 c 1.49323,0 2.70376,-1.21046 2.70376,-2.70373 v -1.35196 c 0,-1.49327 -1.21053,-2.70383 -2.70376,-2.70383 z"
       id="path177" />
    <path
       style="font-variation-settings:normal;vector-effect:none;fill:#0088aa;fill-opacity:1;stroke:none;stroke-width:0.51095;stroke-linecap:butt;stroke-linejoin:miter;stroke-miterlimit:4;stroke-dasharray:none;stroke-dashoffset:0;stroke-opacity:1;stop-color:#000000"
       d="m 90.425507,111.00388 c -1.49327,0 -2.70375,1.21056 -2.70375,2.70383 v 1.35196 c 0,1.49327 1.21048,2.70373 2.70375,2.70373 h 1.35188 c 1.49327,0 2.70376,-1.21046 2.70376,-2.70373 v -1.35196 c 0,-1.49327 -1.21049,-2.70383 -2.70376,-2.70383 z"
       id="path179" />
    <path
       style="font-variation-settings:normal;vector-effect:none;fill:#004455;fill-opacity:1;stroke:none;stroke-width:0.51095;stroke-linecap:butt;stroke-linejoin:miter;stroke-miterlimit:4;stroke-dasharray:none;stroke-dashoffset:0;stroke-opacity:1;stop-color:#000000"
       d="m 51.220847,111.00388 c -2.23991,0 -4.05568,1.81579 -4.05568,4.05579 v 4.05554 c 0,1.49337 1.21053,2.70372 2.70375,2.70372 h 1.35193 c 1.49323,0 2.70376,-1.21035 2.70376,-2.70372 0,-0.74664 0.60524,-1.35181 1.35188,-1.35181 0.74663,0 1.35187,0.60517 1.35187,1.35181 v 33.79719 c 0,1.49327 1.21054,2.70373 2.70381,2.70373 h 4.05563 20.27827 c 1.49328,0 2.70381,-1.21046 2.70381,-2.70373 v -1.35191 c 0,-1.49332 -1.21053,-2.70382 -2.70381,-2.70382 h -20.27827 v -29.74146 c 0,-0.74664 0.60525,-1.35181 1.35188,-1.35181 h 17.57452 c 1.49327,0 2.70375,-1.21046 2.70375,-2.70373 v -1.35196 c 0,-1.49327 -1.21048,-2.70383 -2.70375,-2.70383 z"
       id="path181" />
    <path
       style="font-variation-settings:normal;vector-effect:none;fill:#0088aa;fill-opacity:1;stroke:none;stroke-width:0.51095;stroke-linecap:butt;stroke-linejoin:miter;stroke-miterlimit:4;stroke-dasharray:none;stroke-dashoffset:0;stroke-opacity:1;stop-color:#000000"
       d="m 44.461407,101.5407 c -3.73313,0 -6.75944,3.02639 -6.75944,6.75946 v 33.79715 51.37165 c 0,1.49327 1.21053,2.70377 2.70376,2.70377 h 4.05568 56.779183 c 1.49327,0 2.7038,-1.2105 2.7038,-2.70377 v -1.35181 c 0,-1.49342 -1.21053,-2.70388 -2.7038,-2.70388 H 47.165167 c -1.49323,0 -2.70376,-1.21045 -2.70376,-2.70382 v -44.61214 -27.03764 c 0,-3.73317 3.02631,-6.75951 6.75944,-6.75951 h 82.465003 29.74147 8.11133 c 2.98649,0 5.40755,2.42106 5.40755,5.40755 v 13.51882 a 1.8954227,1.8954226 0 0 0 3.39149,1.16379 l 1.16151,-1.49317 a 10.47253,10.47253 0 0 0 2.20642,-6.42998 v -12.16701 -1.35181 c 0,-2.98649 -2.42105,-5.40765 -5.40756,-5.40765 h -14.87074 -29.74147 z"
       id="path183" />
    <path
       d="m 183.71353,127.18427 c -0.41409,-0.0205 -0.84075,0.14597 -1.14594,0.5386 l -14.77567,19.00037 c -1.04771,1.34659 -2.65845,2.13389 -4.3646,2.13343 H 147.2047 130.9821 c -1.70616,4.6e-4 -3.31692,-0.78684 -4.36462,-2.13343 l -14.77565,-19.00037 c -0.26437,-0.33957 -0.67094,-0.53706 -1.10107,-0.53588 -0.76748,0.001 -1.38886,0.62397 -1.38886,1.3914 v 20.27828 l -4.05563,4.05573 v 5.73754 a 2.7037737,2.7037736 0 0 0 2.70376,2.70382 h 37.8528 6.75941 33.46709 a 3.033811,3.0338109 0 0 0 3.03383,-3.03381 v -5.40755 l -4.05565,-4.05573 v -20.27828 c 6.7e-4,-0.82848 -0.65402,-1.36421 -1.34398,-1.39412 z m -78.41726,42.97255 v 28.71974 a 4.055645,4.0556448 0 0 0 4.05563,4.05563 h 37.8528 37.85281 a 4.0556498,4.0556496 0 0 0 4.05565,-4.05563 v -27.36778 c -0.92377,0 -1.68193,0.75816 -1.68194,1.68185 v 1.35191 c -4e-5,1.31622 -1.05768,2.37353 -2.37371,2.37363 h -0.008 -0.0119 c -0.17447,-0.003 -0.32631,0.14444 -0.32735,0.32011 v -0.0256 c 0.0168,1.32671 -1.0468,2.40303 -2.37372,2.40277 h -1.3356 c -0.17714,0 -0.33008,0.1516 -0.33008,0.32984 -3e-5,1.31616 -1.05754,2.37378 -2.37372,2.37378 h -0.75251 c -0.39632,0.75483 -1.03551,1.35187 -1.95127,1.35187 h -12.16728 c -0.91574,0 -1.55496,-0.59704 -1.95124,-1.35187 h -0.75253 c -1.31619,0 -2.37371,-1.05762 -2.37371,-2.37378 0,-0.17721 -0.15293,-0.32984 -0.33002,-0.32984 h -1.35189 c -1.31618,0 -2.37372,-1.05762 -2.37372,-2.37373 0,-0.1767 -0.15298,-0.32984 -0.33007,-0.32984 -1.31619,0 -2.37373,-1.05757 -2.37373,-2.37373 v -2.70372 c 0,-0.3073 0.048,-0.29552 -0.43562,-0.33035 h -2.59806 c -0.92371,0 -1.68193,0.75826 -1.68194,1.6819 v 1.35197 c -5e-5,1.31611 -1.0576,2.37353 -2.37371,2.37363 h -0.008 -0.0119 c -0.17447,-0.003 -0.32636,0.14443 -0.32735,0.3201 v -0.0256 c 0.0168,1.32692 -1.04679,2.40308 -2.37373,2.40288 h -1.3356 c -0.17709,0 -0.33007,0.1516 -0.33007,0.32881 0,1.31627 -1.05756,2.37379 -2.37372,2.37379 h -0.75202 c -0.39637,0.75477 -1.03553,1.35186 -1.95126,1.35186 h -12.16698 c -0.91576,0 -1.55497,-0.59709 -1.95123,-1.35186 h -0.75228 c -1.31618,0 -2.37373,-1.05752 -2.37373,-2.37379 0,-0.17721 -0.15299,-0.32881 -0.33023,-0.32881 h -1.35187 c -1.31619,0 -2.37374,-1.05762 -2.37374,-2.37373 0,-0.1767 -0.15298,-0.33035 -0.33022,-0.33035 -1.31618,0 -2.37373,-1.05762 -2.37373,-2.37374 v -2.70382 c 0,-0.92364 -0.75822,-1.68195 -1.6819,-1.68195 z m 41.90315,13.23897 h 2.70377 0.0421 2.66417 a 0.60840932,0.60840923 0 0 1 0.42775,1.0377 l -2.52421,2.5242 v 11.30632 h 24.83032 l 2.52424,-2.52426 a 0.60834847,0.60834849 0 0 1 0.85812,0 0.60834847,0.60834849 0 0 1 0,0.85803 l -2.70377,2.70649 a 0.60840932,0.60840923 0 0 1 -0.43037,0.17977 h -25.68848 -25.67524 a 0.60840932,0.60840923 0 0 1 -0.44112,-0.17977 l -2.70376,-2.70649 a 0.60834847,0.60834849 0 0 1 0,-0.85803 0.60834847,0.60834849 0 0 1 0.86868,0 l 2.52424,2.52426 h 24.81977 v -11.30632 l -2.52422,-2.5242 a 0.60840932,0.60840923 0 0 1 0.42775,-1.0377 z m 1.47863,1.21721 1.23042,1.23058 1.23308,-1.23058 h -1.23836 -0.0396 z"
       style="font-variation-settings:normal;vector-effect:none;fill:#12376e;fill-opacity:1;stroke:none;stroke-width:0.51095;stroke-linecap:butt;stroke-linejoin:miter;stroke-miterlimit:4;stroke-dasharray:none;stroke-dashoffset:0;stroke-opacity:1;stop-color:#000000"
       id="path185" />
    <path
       d="m 13.368017,156.96809 a 2.7037746,2.7037744 0 0 0 -2.70376,2.70372 v 2.70378 a 2.7037746,2.7037744 0 0 0 2.70376,2.70377 h 8.56546 a 7.4301673,7.4301677 0 0 1 4.12168,1.24886 l 8.73448,5.8221 a 1.003324,1.0033239 0 0 0 1.56046,-0.83442 v -4.88473 a 2.5260212,2.5260212 0 0 0 -1.12484,-2.10172 l -10.419,-6.9442 a 2.4767223,2.4767221 0 0 0 -1.37302,-0.41793 z m 25.64098,40.5565 a 2.7433166,2.8060304 0 0 0 -2.55855,1.9196 l -1.94336,5.96729 a 3.1546352,3.2267518 0 0 0 2.99155,4.24847 h 11.44091 a 5.4866162,5.6120425 0 0 0 5.20686,-3.83924 l 1.91162,-5.86947 a 1.8027005,1.8439113 0 0 0 -1.71097,-2.42665 h -15.29321 a 2.7433166,2.8060304 0 0 0 -0.0446,0 z m 20.68225,0 a 1.2325314,1.2325313 0 0 0 -1.16973,1.62116 l 1.30702,3.92632 a 3.7512756,3.7512755 0 0 0 3.55926,2.56379 h 7.82353 a 2.1568679,2.1568678 0 0 0 2.04628,-2.83842 l -1.33074,-3.98961 a 1.8756439,1.8756436 0 0 0 -1.77963,-1.28324 z m 56.354103,6.75957 a 1.8756439,1.8756436 0 0 0 -1.71364,1.28302 l -1.33074,3.98962 a 2.1568679,2.1568678 0 0 0 2.04629,2.83852 h 7.82352 a 3.7512756,3.7512755 0 0 0 3.55927,-2.5639 l 1.30697,-3.92616 a 1.2325314,1.2325313 0 0 0 -1.16969,-1.6211 h -10.45599 a 1.8756439,1.8756436 0 0 0 -0.0658,0 z m 51.79672,0 a 1.2325314,1.2325313 0 0 0 -1.1697,1.6211 l 1.30702,3.92616 a 3.7512756,3.7512755 0 0 0 3.55926,2.5639 h 7.8235 a 2.1568679,2.1568678 0 0 0 2.04632,-2.83852 l -1.33076,-3.98962 a 1.8756439,1.8756436 0 0 0 -1.77965,-1.28302 z"
       style="font-variation-settings:normal;vector-effect:none;fill:#008080;fill-opacity:1;stroke:none;stroke-width:0.51095;stroke-linecap:butt;stroke-linejoin:miter;stroke-miterlimit:4;stroke-dasharray:none;stroke-dashoffset:0;stroke-opacity:1;stop-color:#000000"
       id="path187" />
    <path
       d="m 105.29627,165.07936 v 2.70372 a 1.3518882,1.3518881 0 0 0 1.35188,1.35186 h 2.70375 c 1.49328,0 2.70376,1.21051 2.70376,2.70383 v 2.70377 c 0,0.74648 0.60529,1.35181 1.35193,1.35181 0.74659,0 1.35188,0.60533 1.35188,1.35192 0,0.74658 0.60524,1.35181 1.35187,1.35181 h 1.35188 c 0.74664,0 1.35188,0.60532 1.35188,1.35201 0,0.74658 0.60529,1.35191 1.35188,1.35191 h 1.35188 c 0,0.74654 0.60529,1.35181 1.35192,1.35181 h 12.16695 c 0.74664,0 1.35189,-0.60522 1.35189,-1.35181 h 1.35189 c 0.74661,0 1.35189,-0.60527 1.35189,-1.35191 0,-0.74663 0.60526,-1.35196 1.35188,-1.35201 h 1.33603 c 0.75291,2e-4 1.36083,-0.61476 1.35189,-1.36769 0.004,-0.74843 0.61934,-1.3491 1.36774,-1.33604 0.74662,-5e-5 1.35185,-0.60527 1.35189,-1.35181 v -1.35191 c 3e-5,-1.49322 1.21052,-2.70367 2.70375,-2.70367 h 2.66945 c 0.83475,0.0594 1.38621,0.30423 1.38621,1.35181 v 2.70377 c 0,0.74648 0.60526,1.35181 1.3519,1.35181 0.74662,0 1.35187,0.60533 1.35187,1.35192 0,0.74658 0.60527,1.35181 1.35189,1.35181 h 1.35189 c 0.74663,0 1.35189,0.60532 1.35189,1.35201 0,0.74658 0.60523,1.35191 1.35189,1.35191 h 1.35187 c 0,0.74654 0.60528,1.35181 1.35188,1.35181 h 12.16698 c 0.74662,0 1.3519,-0.60527 1.3519,-1.35181 h 1.35186 c 0.74664,0 1.35188,-0.60533 1.3519,-1.35191 -2e-5,-0.74669 0.60526,-1.35201 1.35188,-1.35201 h 1.33604 c 0.75291,2e-4 1.36081,-0.61476 1.35189,-1.36769 0.004,-0.74843 0.61936,-1.3491 1.36774,-1.33604 0.74663,-1e-4 1.35186,-0.60522 1.35187,-1.35181 v -1.35191 c 2e-5,-1.02351 0.56875,-1.91417 1.40742,-2.37327 0.64811,-0.35391 1.29636,-0.93578 1.29636,-1.68242 v -4.05558 a 2.7037806,2.7037805 0 0 0 -2.70379,-2.70377 h -33.79713 -6.75941 -37.8528 a 2.7037806,2.7037805 0 0 0 -2.70376,2.70377 z m 10.17344,6.75941 h 1.28321 c 0.3936,0 0.7103,0.31652 0.7103,0.71022 v 1.28328 c 0,0.39437 -0.31636,0.71027 -0.7103,0.71027 h -1.28321 c -0.39359,0 -0.71024,-0.316 -0.71024,-0.71027 v -1.28328 c 0,-0.39488 0.31635,-0.71022 0.71024,-0.71022 z m 5.40757,0 h 1.28321 c 0.39359,0 0.71029,0.31652 0.71029,0.71022 v 1.28328 c 0,0.39437 -0.31636,0.71027 -0.71029,0.71027 h -1.28321 c -0.3936,0 -0.7103,-0.316 -0.7103,-0.71027 v -1.28328 c 0,-0.39488 0.31636,-0.71022 0.7103,-0.71022 z m 35.149,0 h 1.28324 c 0.39369,0 0.71027,0.31652 0.71027,0.71022 v 1.28328 c 0,0.39437 -0.31661,0.71027 -0.71027,0.71027 h -1.28324 c -0.39374,0 -0.71027,-0.316 -0.71027,-0.71027 v -1.28328 c 0,-0.39488 0.31656,-0.71022 0.71027,-0.71022 z m 5.40755,0 h 1.28323 c 0.39369,0 0.71026,0.31652 0.71026,0.71022 v 1.28328 c 0,0.39437 -0.31641,0.71027 -0.71026,0.71027 h -1.28323 c -0.39369,0 -0.71026,-0.316 -0.71026,-0.71027 v -1.28328 c 0,-0.39488 0.31645,-0.71022 0.71026,-0.71022 z m -43.26036,2.70377 h 1.28326 c 0.39359,0 0.71025,0.31652 0.71025,0.71027 v 1.28318 c 0,0.39437 -0.31636,0.71028 -0.71025,0.71028 h -1.28326 c -0.39359,0 -0.71025,-0.31601 -0.71025,-0.71028 v -1.28318 c 0,-0.39436 0.31636,-0.71027 0.71025,-0.71027 z m 5.40756,0 h 1.28321 c 0.39359,0 0.7103,0.31652 0.7103,0.71027 v 1.28318 c 0,0.39437 -0.31636,0.71028 -0.7103,0.71028 h -1.28321 c -0.39359,0 -0.71025,-0.31601 -0.71025,-0.71028 v -1.28318 c 0,-0.39436 0.31636,-0.71027 0.71025,-0.71027 z m 35.14903,0 h 1.28324 c 0.39364,0 0.71027,0.31652 0.71027,0.71027 v 1.28318 c 0,0.39437 -0.31651,0.71028 -0.71027,0.71028 h -1.28324 c -0.39374,0 -0.71027,-0.31601 -0.71027,-0.71028 v -1.28318 c 0,-0.39436 0.31646,-0.71027 0.71027,-0.71027 z m 5.40753,0 h 1.28324 c 0.3937,0 0.71026,0.31652 0.71026,0.71027 v 1.28318 c 0,0.39437 -0.3166,0.71028 -0.71026,0.71028 h -1.28324 c -0.39369,0 -0.71027,-0.31601 -0.71027,-0.71028 v -1.28318 c 0,-0.39436 0.31661,-0.71027 0.71027,-0.71027 z m -43.26031,2.70373 h 1.28321 c 0.39359,0 0.71029,0.31703 0.71029,0.71037 v 1.28318 c 0,0.39488 -0.31636,0.71027 -0.71029,0.71027 h -1.28321 c -0.3936,0 -0.7103,-0.31703 -0.7103,-0.71027 v -1.28318 c 0,-0.39437 0.31636,-0.71037 0.7103,-0.71037 z m 5.40751,0 h 1.28326 c 0.39359,0 0.71025,0.31703 0.71025,0.71037 v 1.28318 c 0,0.39488 -0.31636,0.71027 -0.71025,0.71027 h -1.28326 c -0.39359,0 -0.71025,-0.31703 -0.71025,-0.71027 v -1.28318 c 0,-0.39437 0.31636,-0.71037 0.71025,-0.71037 z m 35.14904,0 h 1.28323 c 0.39369,0 0.71026,0.31703 0.71026,0.71037 v 1.28318 c 0,0.39488 -0.31641,0.71027 -0.71026,0.71027 h -1.28323 c -0.39369,0 -0.71026,-0.31652 -0.71026,-0.71027 v -1.28318 c 0,-0.39437 0.31645,-0.71037 0.71026,-0.71037 z m 5.40754,0 h 1.28324 c 0.39375,0 0.71027,0.31703 0.71027,0.71037 v 1.28318 c 0,0.39488 -0.31656,0.71027 -0.71027,0.71027 h -1.28324 c -0.39359,0 -0.71028,-0.31652 -0.71028,-0.71027 v -1.28318 c 0,-0.39437 0.31646,-0.71037 0.71028,-0.71037 z"
       style="font-variation-settings:normal;vector-effect:none;fill:#e78925;fill-opacity:1;stroke:none;stroke-width:0.51095;stroke-linecap:butt;stroke-linejoin:miter;stroke-miterlimit:4;stroke-dasharray:none;stroke-dashoffset:0;stroke-opacity:1;stop-color:#000000"
       id="path189" />
    <path
       id="rect191"
       style="fill:#0088aa;fill-opacity:1;stroke:none;stroke-width:1.11014;stroke-linecap:round;stroke-linejoin:round;stop-color:#000000"
       d="m 49.791517,124.27167 h 2.43895 c 1.50149,0 2.71026,1.20877 2.71026,2.71026 v 57.22016 c 0,1.50148 -1.20877,2.71025 -2.71026,2.71025 h -2.43895 c -1.50148,0 -2.71026,-1.20877 -2.71026,-2.71025 v -57.22016 c 0,-1.50149 1.20878,-2.71026 2.71026,-2.71026 z"
       sodipodi:nodetypes="sssssssss" />
    <path
       id="rect193"
       style="fill:#0088aa;fill-opacity:1;stroke:none;stroke-width:1.19908;stroke-linecap:round;stroke-linejoin:round;stop-color:#000000"
       d="m 60.270737,158.6675 h 1.12904 c 1.50148,0 2.71026,1.20877 2.71026,2.71026 v 22.82428 c 0,1.50148 -1.20878,2.71026 -2.71026,2.71026 h -1.12904 c -1.50148,0 -2.71026,-1.20878 -2.71026,-2.71026 v -22.82428 c 0,-1.50149 1.20878,-2.71026 2.71026,-2.71026 z"
       sodipodi:nodetypes="sssssssss" />
    <path
       style="font-variation-settings:normal;vector-effect:none;fill:#004455;fill-opacity:1;stroke:none;stroke-width:0.51095;stroke-linecap:butt;stroke-linejoin:miter;stroke-miterlimit:4;stroke-dasharray:none;stroke-dashoffset:0;stroke-opacity:1;stop-color:#000000"
       d="m 147.39352,111.00388 c -1.49327,0 -2.7038,1.21056 -2.7038,2.70383 v 1.35196 c 0,1.49327 1.21053,2.70373 2.7038,2.70373 h 9.46319 c 0.74662,0 1.35188,0.60517 1.35188,1.35181 0,0.74673 -0.60525,1.35196 -1.35188,1.35196 h -9.46319 c -1.49327,0 -2.7038,1.2105 -2.7038,2.70367 v 4.05569 2.70367 4.05579 c 0,1.49316 1.21053,2.70372 2.7038,2.70372 h 14.87074 c 1.49324,0 2.70376,-1.21056 2.70376,-2.70372 v -1.35202 c 0,-1.49322 -1.21052,-2.70377 -2.70376,-2.70377 h -9.46323 c -0.74658,0 -1.35187,-0.60513 -1.35187,-1.35181 0,-0.74659 0.60529,-1.35186 1.35187,-1.35186 h 9.46323 c 1.49324,0 2.70376,-1.21056 2.70376,-2.70373 v -4.05563 -2.70377 -4.05569 c 0,-1.49327 -1.21052,-2.70383 -2.70376,-2.70383 z"
       id="path112" />
    <path
       id="rect118"
       style="fill:#53676c;fill-opacity:1;stroke:none;stroke-width:1.20502;stroke-linecap:round;stroke-linejoin:round;stop-color:#000000"
       d="m 69.406017,157.34458 c -1.50148,0 -2.71041,1.20895 -2.71041,2.71043 v 13.55059 10.13272 c 0,1.50148 1.20893,2.71043 2.71041,2.71043 h 1.19375 c 0.0109,0 0.0212,-10e-4 0.032,-0.002 0.0109,1.3e-4 0.0217,0.002 0.0326,0.002 h 13.22916 c 1.46582,0 2.64584,-1.18002 2.64584,-2.64584 v -1.32291 -10.47843 -0.23823 -0.80202 c 5e-5,-0.006 5e-5,-0.0121 0,-0.0181 0,-0.73063 -0.5923,-1.32292 -1.32292,-1.32292 h -0.25167 c -0.10602,-0.0184 -0.2285,-0.0564 -0.33073,-0.1049 -0.37539,-0.17839 -0.64384,-0.5189 -0.73173,-0.92863 -0.008,-0.0366 -0.009,0.0103 -0.009,0.50436 v -8.86457 -0.89761 c 0,-1.09594 -0.88845,-1.98438 -1.98438,-1.98438 h -1.37975 -9.92963 z m 2.36731,4.74855 h 6.82853 l -0.57412,0.001 c -0.31589,2.6e-4 -0.57074,0.002 -0.56587,0.002 0.005,0.001 0.0289,0.005 0.0532,0.009 0.10908,0.0172 0.23886,0.0578 0.3457,0.10852 0.37539,0.17839 0.64334,0.5189 0.73123,0.92862 0.008,0.0366 0.009,-0.0103 0.009,-0.50436 v 4.74545 c 0,-0.49403 -3e-5,-0.54096 -0.009,-0.50436 -0.0879,0.40973 -0.35584,0.75023 -0.73123,0.92862 -0.10684,0.0507 -0.23662,0.0918 -0.3457,0.10904 -0.0243,0.004 -0.0482,0.008 -0.0532,0.009 -0.005,0 0.24998,0.002 0.56587,0.002 l 0.28681,5.3e-4 h -6.54122 l 0.57412,-0.001 c 0.31589,-2.6e-4 0.57073,-0.002 0.56586,-0.002 -0.005,-10e-4 -0.0289,-0.005 -0.0532,-0.009 -0.10909,-0.0172 -0.23887,-0.0578 -0.3457,-0.10852 -0.37539,-0.17839 -0.64334,-0.5189 -0.73123,-0.92863 -0.008,-0.0366 -0.009,0.0103 -0.009,0.50437 v -4.74545 c 0,0.49403 2e-5,0.54096 0.009,0.50436 0.0879,-0.40973 0.35584,-0.75024 0.73123,-0.92863 0.10683,-0.0507 0.23661,-0.0913 0.3457,-0.10851 0.0243,-0.004 0.0482,-0.008 0.0532,-0.009 0.005,0 -0.24997,-0.001 -0.56586,-0.002 z m 0.28731,12.44937 h 9.00551 l -0.57412,0.001 c -0.31589,2.6e-4 -0.57073,0.002 -0.56587,0.002 0.005,0.001 0.0289,0.005 0.0532,0.009 0.10909,0.0172 0.23886,0.0578 0.3457,0.10852 0.37539,0.17839 0.64334,0.5189 0.73123,0.92862 0.008,0.0366 0.009,-0.0103 0.009,-0.50436 v 5.31676 c 0,-0.49403 -5e-5,-0.54096 -0.009,-0.50436 -0.0879,0.40973 -0.35584,0.75024 -0.73123,0.92863 -0.10684,0.0507 -0.23661,0.0918 -0.3457,0.10904 -0.0243,0.004 -0.0482,0.008 -0.0532,0.009 -0.005,0 0.24998,0.002 0.56587,0.002 l 0.28681,5.3e-4 h -9.00551 l 0.57412,-0.001 c 0.31589,-2.7e-4 0.57073,-0.002 0.56586,-0.002 -0.005,-10e-4 -0.0289,-0.005 -0.0532,-0.009 -0.10909,-0.0172 -0.23887,-0.0578 -0.3457,-0.10852 -0.37539,-0.17839 -0.64334,-0.5189 -0.73123,-0.92862 -0.008,-0.0366 -0.009,0.0103 -0.009,0.50436 v -5.31676 c 0,0.49403 2e-5,0.54096 0.009,0.50436 0.0879,-0.40973 0.35584,-0.75024 0.73123,-0.92863 0.10683,-0.0507 0.23661,-0.0918 0.3457,-0.10903 0.0243,-0.004 0.0482,-0.008 0.0532,-0.009 0.005,0 -0.24997,-0.002 -0.56586,-0.002 z"
       sodipodi:nodetypes="sscssscssscccccscccccssccsccccccccccscccccccccccccsccccccccccccccscccccccccscccscccc" />
  </g>
</svg>
