<?xml version="1.0" encoding="UTF-8" standalone="no"?>
<!-- Created with Inkscape (http://www.inkscape.org/) -->

<svg
   width="238.125mm"
   height="238.125mm"
   viewBox="0 0 238.125 238.125"
   version="1.1"
   id="svg898"
   xmlns="http://www.w3.org/2000/svg"
   xmlns:svg="http://www.w3.org/2000/svg">
  <defs
     id="defs895" />
  <g
     id="layer1"
     transform="translate(4.6410848,-35.427064)">
    <path
       id="path8899"
       style="fill:#feb948;fill-opacity:1;stroke-width:5.29167;stroke-linecap:round;stroke-linejoin:round;stroke-miterlimit:4;stroke-dasharray:none;paint-order:stroke fill markers"
       d="M 35.046415,35.427064 A 39.6875,39.6875 0 0 0 -4.6410848,75.114561 v 79.374999 79.375 a 39.6875,39.6875 0 0 0 39.6874998,39.68751 h 79.374995 79.375 a 39.6875,39.6875 0 0 0 39.6875,-39.68751 v -79.375 -79.374999 a 39.6875,39.6875 0 0 0 -39.6875,-39.687497 h -79.375 z" />
    <g
       id="g23091"
       transform="matrix(0.26458333,0,0,0.26458333,-937.24089,11.404642)">
      <path
         id="path8901"
         style="fill:#d99321;fill-opacity:1;stroke:none;stroke-width:16.3058;stroke-linecap:round;stroke-linejoin:round;stroke-miterlimit:4;stroke-dasharray:none;paint-order:stroke fill markers"
         d="m 3875.3203,233.95508 c -20.0564,0.23689 -39.8587,8.73094 -53.9062,23.03906 -0.2591,0.26607 -0.8296,0.86807 -1.208,1.26277 -12.5909,13.3041 -20.3631,31.16779 -21.1202,49.5009 -0.045,1.02102 -0.085,2.30836 -0.082,3.43437 -0.015,7.64201 1.1019,15.29469 3.3275,22.64687 0.3924,1.3112 0.8209,2.59585 1.2578,3.80169 2.6114,7.29992 6.3535,14.19178 11.0514,20.35926 0.4461,0.57724 1.0776,1.39185 1.6105,2.04786 2.5928,3.19997 5.5593,6.29686 8.5497,8.97948 4.6742,4.19683 9.8484,7.83563 15.3847,10.80469 0.7098,0.3716 1.6729,0.87704 2.4965,1.27366 11.5112,5.65667 24.6089,8.27155 37.318,7.68923 3.8364,-0.1696 7.7205,-0.63312 11.5558,-1.39552 1.8327,-0.33649 3.841,0.0747 5.3797,1.13771 1.5287,1.09475 2.0236,3.01055 2.9045,4.57881 14.4008,30.07268 28.7995,60.14665 43.1991,90.22002 0.7967,2.35783 0.607,5.396 -1.4713,7.05271 -3.7718,3.26054 -7.3781,6.72881 -10.5221,10.6073 -10.579,12.84107 -17.0247,29.12561 -17.6435,45.78546 -0.6267,14.22053 2.7657,28.59627 9.6994,41.02914 0.2139,0.35792 0.5959,1.0486 0.8837,1.53288 2.0907,3.6004 4.5942,6.93177 7.1377,10.21907 1.292,2.12693 1.6403,5.13347 -0.063,7.14714 -4.181,5.78902 -8.5054,11.47285 -12.7405,17.22248 l -77.8308,104.77296 c -1.7139,1.80821 -4.4957,3.05777 -6.9314,1.9861 -4.771,-1.88262 -9.6639,-3.48795 -14.7078,-4.45708 -3.1394,-0.6346 -6.4133,-1.06911 -9.5171,-1.2966 -3.7224,-0.27686 -7.5422,-0.2809 -11.3418,-0.0176 -1.4225,0.10974 -2.737,0.22943 -4.0523,0.39701 -2.556,0.30786 -5.3285,0.79593 -7.9293,1.40358 -9.7059,2.2419 -18.9254,6.47141 -27.0516,12.2209 -0.3072,0.218 -0.9254,0.66932 -1.3515,0.97656 -0.3599,0.2835 -1.0157,0.76097 -1.4869,1.13391 -1.7043,1.32642 -3.3502,2.72635 -4.9448,4.1825 -0.3024,0.28151 -0.8817,0.82361 -1.2883,1.21055 -9.8629,9.44665 -17.1347,21.5556 -20.8311,34.70367 -1.5202,5.33958 -2.4583,10.8434 -2.8005,16.3846 -0.028,0.64523 -0.089,1.61389 -0.1025,2.38393 -0.067,2.14837 -0.03,4.34179 0.084,6.40032 0.9711,18.31694 8.6863,36.21698 21.4742,49.3877 8.2087,8.55269 18.3776,15.21701 29.5094,19.29876 0.3789,0.13493 1.127,0.40371 1.6507,0.58045 20.8847,7.12035 44.8301,4.72623 63.8026,-6.57922 8.4042,-4.93782 15.8409,-11.49143 21.8748,-19.14186 0.2488,-0.33474 0.7431,-0.96729 1.0859,-1.41601 7.8027,-10.33966 12.8853,-22.69058 14.6649,-35.51841 1.7139,-12.34625 0.5107,-24.85948 -3.7031,-36.60648 -0.1518,-0.4235 -0.4839,-1.32688 -0.6371,-1.72205 -1.393,-3.63323 -3.0616,-7.15911 -4.9809,-10.54369 -0.2777,-0.47876 -0.7201,-1.25763 -1.0809,-1.84079 -1.9632,-3.28335 -4.2272,-6.37781 -6.6148,-9.36015 -1.2341,-2.09164 -1.6922,-5.00151 -0.084,-7.03285 4.0351,-5.61399 8.2325,-11.10917 12.3296,-16.67804 26.1214,-35.16416 52.2429,-70.32831 78.3643,-105.49247 1.696,-1.77757 4.4189,-3.03473 6.8379,-2.02148 4.4994,1.76678 9.0931,3.32426 13.8364,4.29322 6.9273,1.48433 14.0587,1.99418 21.1285,1.55834 0.6344,-0.0447 1.5927,-0.10764 2.3493,-0.18496 2.3934,-0.21501 4.7741,-0.55753 7.137,-0.99277 0.382,-0.0747 1.132,-0.22094 1.6582,-0.33002 4.7269,-0.98601 9.3428,-2.46315 13.8047,-4.30084 1.9574,-0.57645 4.2542,-0.33585 5.9123,0.8953 1.8852,1.69006 3.1046,3.95101 4.6968,5.89395 29.0248,39.0696 58.0496,78.1392 87.0745,117.2088 1.217,2.1374 1.6324,5.10774 -0.037,7.13281 -3.1836,4.04534 -6.164,8.26823 -8.5653,12.83095 -2.3847,4.43746 -4.3241,9.1119 -5.8097,13.92491 -0.1793,0.5938 -0.4535,1.5077 -0.6466,2.23061 -2.1219,7.67134 -3.0592,15.67691 -2.6913,23.63072 0.052,1.00087 0.1211,2.27083 0.2166,3.37297 0.3288,3.76497 0.937,7.50448 1.8088,11.18171 0.1077,0.43201 0.2942,1.20908 0.4468,1.77898 3.295,12.55916 9.7734,24.28015 18.7632,33.66025 10.7555,11.33518 24.9706,19.38744 40.2802,22.58421 0.5037,0.0909 1.3343,0.27457 1.9741,0.37915 3.7713,0.67776 7.6177,1.08339 11.5025,1.20874 1.8643,0.0576 3.915,0.0407 5.6621,-0.0332 1.1403,-0.0554 2.0645,-0.10348 3.2207,-0.20546 13.5266,-1.11908 26.751,-5.85141 37.8285,-13.71218 1.8741,-1.31457 3.6883,-2.71368 5.443,-4.18393 0.3467,-0.30929 0.979,-0.83425 1.4289,-1.23879 9.0745,-8.01343 16.3137,-18.13087 20.7859,-29.39206 0.133,-0.34314 0.4598,-1.17906 0.5949,-1.54899 1.5863,-4.23355 2.7944,-8.60742 3.618,-13.05258 0.067,-0.42312 0.2084,-1.16074 0.2773,-1.60686 0.2758,-1.67695 0.4813,-3.32845 0.6451,-4.94593 0.1394,-1.42269 0.2345,-2.84938 0.3002,-4.27729 0.027,-0.65979 0.056,-1.64239 0.064,-2.426 0.062,-5.09471 -0.386,-10.19511 -1.3353,-15.20095 -0.154,-0.79249 -0.3707,-1.86787 -0.5825,-2.7647 -2.1841,-9.61875 -6.278,-18.78545 -11.8961,-26.88764 -0.2738,-0.38635 -0.7408,-1.05934 -1.1055,-1.55512 -10.7644,-14.83879 -26.9715,-25.5989 -44.8106,-29.80395 -3.4681,-0.82677 -6.9973,-1.38583 -10.5467,-1.71515 -0.6367,-0.0579 -1.5966,-0.13323 -2.3575,-0.17713 -1.0117,-0.0608 -1.959,-0.0993 -2.8672,-0.1217 -1.7336,-0.0425 -3.4684,-0.0296 -5.2011,0.041 -0.6555,0.043 -1.6327,0.0781 -2.4109,0.14624 -8.3284,0.59979 -16.5455,2.58252 -24.256,5.77837 -2.3702,0.61175 -5.3228,0.23593 -6.835,-1.89333 -3.1205,-4.02229 -6.0854,-8.16344 -9.146,-12.23177 -27.2157,-36.63044 -54.4314,-73.26087 -81.647,-109.89131 -1.0448,-1.93108 -1.5913,-4.45755 -0.402,-6.45621 1.2126,-1.87752 2.7335,-3.53881 3.9855,-5.39308 9.8487,-13.91399 15.0068,-31.13991 14.1528,-48.18587 -0.033,-0.50823 -0.052,-1.08443 -0.097,-1.6278 -0.8426,-12.50713 -4.7868,-24.78851 -11.3679,-35.45618 -0.546,-0.88637 -1.2509,-1.97955 -1.8978,-2.9223 -0.6846,-1.00467 -1.2873,-1.83018 -2.0299,-2.82575 -11.5717,-15.40293 -28.9831,-26.4101 -47.9861,-29.81139 -6.1473,-1.1241 -12.43,-1.50194 -18.6682,-1.13783 -1.972,0.12359 -4.1398,0.33094 -6.1738,0.61719 -1.8705,0.19725 -3.6918,0.7513 -5.5703,0.85156 -2.1073,-0.0269 -4.331,-0.90106 -5.4512,-2.77734 -3.7705,-7.62554 -7.3712,-15.34036 -11.0715,-23.0026 -11.2251,-23.46133 -22.4808,-46.91029 -33.6868,-70.37934 -0.7599,-2.33966 -0.5457,-5.32534 1.505,-6.95976 3.0074,-2.62708 5.9916,-5.36486 8.6537,-8.41416 8.1948,-9.253 14.1829,-20.45804 17.25,-32.43555 0.113,-0.49889 0.3328,-1.31819 0.4674,-1.95497 1.2539,-5.51128 1.8701,-11.15619 1.8701,-16.80231 0,-13.95635 -3.7646,-27.92004 -10.966,-39.89101 -9.0912,-15.12305 -23.426,-27.02928 -40.0037,-33.09542 -0.9786,-0.35574 -2.294,-0.80615 -3.4287,-1.16427 -3.3675,-1.05989 -6.9888,-1.87664 -10.3571,-2.45139 -2.9405,-0.4897 -6.2303,-0.83536 -9.207,-0.97266 -1.5453,-0.0686 -3.0919,-0.0998 -4.6387,-0.084 z m 1.2578,28.37109 c 15.681,-0.0788 31.1918,7.91623 40.1052,20.83973 8.3209,11.82889 11.0207,27.41729 7.1147,41.34798 -3.2985,12.08438 -11.3871,22.81674 -22.2195,29.14517 -11.0214,6.54423 -24.6376,8.54828 -37.0671,5.39175 -11.5131,-2.84776 -21.9375,-9.99019 -28.5812,-19.83704 -6.8282,-9.95683 -9.7992,-22.47765 -8.117,-34.43825 1.579,-11.67124 7.4264,-22.76111 16.3851,-30.44519 8.8843,-7.72346 20.6029,-12.08911 32.3798,-12.00415 z m 324.5254,161.11328 c -7.8084,0.16993 -14.9358,6.77317 -15.5759,14.58188 -0.5649,5.47384 1.8607,11.09416 6.1017,14.56892 31.1112,31.11966 62.2224,62.23931 93.3336,93.35897 1.4243,1.84289 2.3049,4.51185 1.1119,6.69606 -0.9948,2.19436 -3.081,3.56229 -4.6417,5.31615 -30.7267,30.74041 -61.4878,61.44765 -92.1523,92.24945 -4.9934,5.72074 -5.0956,15.09522 -0.094,20.84743 4.1351,4.97355 11.3958,7.2751 17.5605,5.08544 3.635,-1.18674 6.601,-3.76576 9.0964,-6.58285 36.286,-36.2995 72.6023,-72.56989 108.8328,-108.9241 4.9799,-5.73395 5.1117,-15.18048 -0.039,-20.85528 -2.8991,-3.3467 -6.2653,-6.24404 -9.2973,-9.46518 -34.32,-34.30627 -68.6086,-68.64515 -102.9807,-102.89842 -3.0717,-2.68386 -7.1861,-4.10359 -11.2556,-3.97847 z m -421.7871,8.66211 c -4.8102,0.1045 -9.255,2.68144 -12.4342,6.17886 -3.1476,3.29894 -6.438,6.46205 -9.6416,9.70781 -33.4548,33.46457 -66.9345,66.90552 -100.3365,100.42206 -4.9305,5.68492 -5.1334,15.02921 -0.091,20.71298 2.8411,3.35992 6.2143,6.21267 9.2193,9.41894 34.4459,34.43152 68.867,68.88908 103.3623,103.27035 5.7401,4.98096 15.1296,5.07866 20.8728,0.0462 5.0046,-4.18217 7.2687,-11.53647 4.9854,-17.72411 -1.2237,-3.56271 -3.7713,-6.46961 -6.5476,-8.93113 -30.6986,-30.69869 -61.3973,-61.39738 -92.096,-92.09607 -1.423,-1.84211 -2.3049,-4.50847 -1.1139,-6.69215 0.9782,-2.16638 3.0295,-3.52289 4.571,-5.25127 30.7497,-30.7587 61.5294,-61.48864 92.2189,-92.30664 5.0216,-5.74376 5.1101,-15.18959 0.03,-20.92939 -3.1746,-3.73822 -8.0723,-6.03408 -12.9991,-5.82641 z m 211.5879,68.99805 c 14.0931,-0.0312 28.0976,6.33191 37.2033,17.1151 8.0841,9.36289 12.3245,21.88597 11.72,34.23075 -0.4915,11.31179 -5.0014,22.41593 -12.6459,30.78293 -7.4448,8.23409 -17.7664,13.79462 -28.7432,15.46251 -13.0323,2.05452 -26.8721,-1.30325 -37.3667,-9.34072 -9.8346,-7.43472 -16.6945,-18.69903 -18.6884,-30.8745 -2.3148,-13.54479 1.2482,-28.04301 9.8628,-38.78978 7.3844,-9.33585 18.2504,-15.87275 30.0047,-17.84583 2.8561,-0.49571 5.7549,-0.73832 8.6534,-0.74046 z m -187.2207,251.97656 c 15.5939,-0.0826 31.0256,7.80906 39.9676,20.60663 8.8481,12.37691 11.4125,28.97182 6.7317,43.44718 -3.7896,12.00498 -12.3764,22.43692 -23.5211,28.3241 -12.1992,6.55418 -27.1964,7.63674 -40.1927,2.83504 -12.1841,-4.4116 -22.4483,-13.86429 -27.7669,-25.68962 -6.4409,-14.09012 -5.776,-31.25406 1.9705,-44.70284 6.3376,-11.29735 17.3593,-19.86693 29.9045,-23.13226 4.2027,-1.12798 8.5553,-1.69311 12.9064,-1.68823 z m 374.3633,0 c 13.2733,-0.0501 26.4715,5.5662 35.5732,15.24073 8.6068,9.02548 13.5331,21.44048 13.4385,33.91396 0.015,11.79443 -4.3444,23.55985 -12.1771,32.39674 -8.0168,9.16696 -19.5675,15.13143 -31.6835,16.36196 -13.5383,1.45897 -27.6506,-2.91702 -37.8149,-12.02084 -9.1776,-8.09342 -15.1242,-19.73391 -16.2693,-31.92023 -1.375,-13.68055 3.2058,-27.90443 12.5555,-38.02673 8.9605,-9.84868 22.0735,-15.79987 35.4006,-15.92923 0.3256,-0.005 0.6513,-0.013 0.977,-0.0164 z" />
      <path
         id="path8903"
         style="fill:#3b1661;fill-opacity:1;stroke:none;stroke-width:16.3058;stroke-linecap:round;stroke-linejoin:round;stroke-miterlimit:4;stroke-dasharray:none;paint-order:stroke fill markers"
         d="m 3858.5449,219.96875 c -14.1478,0.33286 -28.1588,4.78817 -39.9032,12.68262 -14.1529,9.42742 -24.9891,23.73901 -30.1187,39.96089 -5.3977,16.82737 -4.5855,35.55997 2.294,51.84208 6.6979,16.06221 19.1328,29.63524 34.5351,37.73225 14.1452,7.53575 30.7455,10.29319 46.5754,7.8246 3.275,-0.50518 6.5162,-1.2294 9.6955,-2.16353 16.6758,34.82942 33.3516,69.65885 50.0274,104.48828 -13.8977,9.68709 -24.4135,24.14443 -29.2179,40.40042 -4.978,16.5877 -3.9638,34.89356 2.8514,50.81811 3.6355,8.55487 8.8774,16.41642 15.3431,23.09201 -32.8086,44.16407 -65.6172,88.32813 -98.4258,132.49219 -13.3619,-6.98678 -28.8618,-9.743 -43.8184,-7.87815 -15.8076,1.89834 -30.8986,9.05056 -42.4569,19.9871 -12.0164,11.2569 -20.2224,26.5289 -22.8228,42.79926 -2.5564,15.52872 -0.089,31.84474 7.0277,45.88855 7.6518,15.2742 20.628,27.799 36.1731,34.88784 15.3411,7.08561 33.103,8.70089 49.4865,4.59006 16.5431,-4.08261 31.5298,-14.02569 41.8246,-27.59067 9.4437,-12.30748 14.9315,-27.59741 15.4037,-43.10803 0.5308,-14.59914 -3.3467,-29.31406 -10.9966,-41.75942 -2.9248,-4.77319 -6.3778,-9.22125 -10.2701,-13.24427 32.8085,-44.16341 65.6171,-88.32683 98.4257,-132.49024 14.0877,7.36968 30.5546,10.02324 46.2517,7.53872 7.9964,-1.24238 15.7843,-3.80504 22.9632,-7.53872 32.8086,44.16341 65.6172,88.32683 98.4258,132.49024 -10.6804,10.98571 -17.9331,25.27297 -20.3481,40.41371 -2.5213,15.43971 -0.086,31.65253 6.9522,45.63176 7.6551,15.38531 20.7096,27.99817 36.3548,35.10924 15.2604,7.02052 32.9045,8.63908 49.2017,4.59533 16.6519,-4.06035 31.7431,-14.05877 42.0797,-27.71765 9.4091,-12.29235 14.8731,-27.55143 15.3448,-43.0287 0.5473,-15.02286 -3.5733,-30.16922 -11.6654,-42.83907 -9.3529,-14.80684 -23.9828,-26.20758 -40.6706,-31.55059 -16.8416,-5.48136 -35.6236,-4.72546 -51.9581,2.13011 -1.9504,0.81377 -3.8673,1.7084 -5.7422,2.68359 -32.808,-44.16406 -65.6159,-88.32812 -98.4238,-132.49219 10.6792,-10.98535 17.933,-25.27153 20.346,-40.41176 2.5155,-15.40679 0.098,-31.58363 -6.9075,-45.54225 -7.6328,-15.39615 -20.6713,-28.02522 -36.3069,-35.15636 -15.4745,-7.14556 -33.4132,-8.73318 -49.9131,-4.47578 -0.8495,0.22131 -1.6969,0.45069 -2.5389,0.69944 -16.6764,-34.82813 -33.3528,-69.65625 -50.0292,-104.48438 13.9545,-9.72484 24.4952,-24.26075 29.2783,-40.59363 5.0149,-16.88534 3.831,-35.53052 -3.3398,-51.62447 -7.0811,-16.11038 -19.9776,-29.56584 -35.7686,-37.33146 -10.8777,-5.41085 -23.0776,-8.06921 -35.2188,-7.75708 z m 1.916,24.35742 c 11.5594,-0.04 23.0954,3.96299 32.0794,11.25043 3.9836,3.1991 7.4712,7.00898 10.3308,11.24176 0.2082,0.33208 0.6568,0.98551 0.9384,1.45353 6.6399,10.52433 9.11,23.52289 7.0214,35.77137 -2.0144,12.28824 -8.768,23.70684 -18.5421,31.41709 -9.1625,7.33228 -20.9279,11.27339 -32.6532,11.03684 -9.8524,-0.12431 -19.6515,-3.16655 -27.8114,-8.69641 -0.3097,-0.21386 -0.951,-0.64809 -1.3768,-0.96624 -10.1342,-7.28137 -17.4025,-18.42281 -19.9501,-30.64195 -2.6726,-12.4673 -0.5688,-25.92247 5.981,-36.88366 0.4775,-0.82718 1.1333,-1.82134 1.5705,-2.49057 3.6628,-5.43334 8.3792,-10.14978 13.8125,-13.8125 0.3321,-0.20821 0.9855,-0.65681 1.4536,-0.93846 8.0823,-5.07931 17.6065,-7.75634 27.146,-7.74123 z m 324.6289,165.11328 c -5.4442,0.1828 -10.5483,3.80527 -12.5742,8.85157 -2.0877,4.93424 -1.0423,10.98907 2.584,14.93359 8.3732,8.44624 16.8152,16.82597 25.2149,25.24663 25.2396,25.24005 50.4791,50.48011 75.7187,75.72017 -33.5448,33.55288 -67.1046,67.09114 -100.6401,100.65316 -3.7787,3.86147 -4.9913,9.95469 -2.9857,14.97088 1.9286,5.12634 7.0233,8.86739 12.5035,9.11583 4.2899,0.28355 8.5952,-1.55538 11.4692,-4.73134 36.7196,-36.72695 73.4541,-73.43928 110.1643,-110.17537 3.8463,-3.92925 5.0305,-10.1736 2.8773,-15.2349 -0.9462,-2.47852 -2.7814,-4.44758 -4.6766,-6.24179 -36.3969,-36.38956 -72.7793,-72.79413 -109.1854,-109.1743 -2.7651,-2.66945 -6.6315,-4.11636 -10.4699,-3.93413 z m -421.875,8.67383 c -3.881,0.13995 -7.5806,2.01262 -10.1621,4.88484 -36.6512,36.65843 -73.3171,73.30261 -109.9591,109.96995 -3.8019,3.83269 -5.0552,9.91224 -3.0853,14.93759 0.8926,2.52747 2.6754,4.59061 4.6086,6.39097 36.4677,36.46027 72.9208,72.93555 109.3976,109.38644 3.8845,3.80369 10.0295,5.00399 15.0626,2.95084 5.109,-1.96138 8.8122,-7.07356 9.0303,-12.54993 0.2564,-4.26455 -1.5812,-8.53079 -4.7356,-11.38794 -33.2776,-33.27694 -66.5552,-66.55387 -99.8327,-99.83081 33.5454,-33.55288 67.1059,-67.09114 100.642,-100.65316 3.778,-3.86193 4.9905,-9.95447 2.9858,-14.97088 -1.9386,-5.15211 -7.0736,-8.90205 -12.5829,-9.12205 -0.4562,-0.0231 -0.9128,-0.0217 -1.3692,-0.006 z m 211.5704,64.98633 c 10.1284,-0.0234 20.249,3.01836 28.6367,8.70703 0.3098,0.21383 0.9509,0.64819 1.3769,0.9661 4.8454,3.49841 9.0549,7.86694 12.3985,12.81906 0.2082,0.33208 0.6568,0.98551 0.9384,1.45353 6.6396,10.52433 9.1101,23.52285 7.0213,35.77137 -1.999,12.18915 -8.6583,23.52529 -18.3102,31.22913 -1.0784,0.87846 -2.4008,1.83454 -3.4249,2.52839 -9.7325,6.61671 -21.805,9.61037 -33.5059,8.47692 -11.9997,-1.06863 -23.5284,-6.59517 -31.8793,-15.27774 -8.1967,-8.41135 -13.2962,-19.74281 -14.1771,-31.45306 -0.9415,-11.46898 2.0666,-23.23812 8.5427,-32.76565 0.2139,-0.30977 0.6481,-0.95103 0.9663,-1.37682 7.2814,-10.13425 18.4228,-17.40249 30.6419,-19.95006 3.5385,-0.75483 7.1572,-1.12247 10.7747,-1.1282 z m -187.1914,251.97656 c 10.1286,-0.0238 20.249,3.01818 28.6367,8.70703 0.298,0.20667 0.9201,0.62364 1.3369,0.93485 4.8603,3.50636 9.0861,7.88343 12.4385,12.85031 0.2082,0.33208 0.6568,0.98551 0.9384,1.45353 6.6208,10.49635 9.0979,23.45312 7.0376,35.6727 -1.1828,7.17426 -3.9325,14.08512 -8.0034,20.1101 -0.2138,0.30978 -0.6482,0.95095 -0.9661,1.37692 -3.4989,4.84447 -7.866,9.05656 -12.819,12.39847 -0.3321,0.20821 -0.9856,0.65681 -1.4536,0.93845 -10.2179,6.44401 -22.7674,8.96622 -34.699,7.1909 -11.875,-1.69472 -23.0461,-7.78378 -30.9201,-16.83123 -1.4213,-1.6159 -2.7269,-3.33161 -3.9371,-5.11062 -0.2082,-0.33208 -0.6568,-0.98551 -0.9385,-1.45353 -6.6398,-10.52433 -9.1099,-23.52289 -7.0213,-35.77137 1.1915,-7.13915 3.9345,-14.01411 7.9871,-20.01143 0.2139,-0.30976 0.6481,-0.95103 0.9663,-1.37682 7.3002,-10.16256 18.4832,-17.43983 30.7397,-19.97114 3.5077,-0.74003 7.0925,-1.10168 10.6769,-1.10712 z m 374.3828,0 c 10.1285,-0.0234 20.249,3.01837 28.6367,8.70703 0.298,0.20667 0.9201,0.62364 1.3369,0.93485 4.8604,3.50636 9.0862,7.88343 12.4385,12.85031 0.2082,0.33208 0.6568,0.98551 0.9384,1.45353 6.6396,10.52433 9.1101,23.52286 7.0213,35.77137 -1.1917,7.13912 -3.9343,14.01413 -7.9871,20.01143 -0.2138,0.30978 -0.6482,0.95095 -0.9661,1.37692 -3.4989,4.84447 -7.866,9.05656 -12.819,12.39847 -0.3321,0.20821 -0.9855,0.65681 -1.4536,0.93845 -10.4963,6.62077 -23.4531,9.09789 -35.6727,7.03757 -7.1742,-1.18276 -14.0851,-3.93244 -20.1101,-8.00337 -0.3097,-0.21383 -0.9509,-0.64819 -1.3769,-0.9661 -4.8451,-3.49862 -9.0553,-7.86666 -12.3984,-12.81905 -0.2083,-0.33208 -0.6569,-0.98551 -0.9385,-1.45353 -6.6208,-10.49636 -9.0979,-23.45312 -7.0376,-35.6727 1.1828,-7.17426 3.9325,-14.08513 8.0034,-20.1101 0.2138,-0.30979 0.6482,-0.95096 0.9661,-1.37692 3.4981,-4.84556 7.8672,-9.05477 12.8191,-12.39847 0.332,-0.20821 0.9855,-0.65681 1.4535,-0.93846 8.0823,-5.07931 17.6066,-7.75634 27.1461,-7.74123 z" />
    </g>
  </g>
</svg>
